<?xml version="1.0" encoding="UTF-8"?>
<svg id="Capa_1" data-name="Capa 1" xmlns="http://www.w3.org/2000/svg" xmlns:xlink="http://www.w3.org/1999/xlink" viewBox="0 0 489.64 274.01">
  <defs>
    <style>
      .cls-1 {
        fill: url(#Degradado_sin_nombre_5);
      }
    </style>
    <linearGradient id="Degradado_sin_nombre_5" data-name="Degradado sin nombre 5" x1="244.82" y1="-43.94" x2="244.82" y2="445.7" gradientUnits="userSpaceOnUse">
      <stop offset=".05" stop-color="#050bfa"/>
      <stop offset=".11" stop-color="#0524fa"/>
      <stop offset=".23" stop-color="#0655fb"/>
      <stop offset=".34" stop-color="#0678fb"/>
      <stop offset=".43" stop-color="#068efb"/>
      <stop offset=".49" stop-color="#0796fc"/>
      <stop offset=".7" stop-color="#a5cff0"/>
    </linearGradient>
  </defs>
  <path class="cls-1" d="M468.16,216.37c-17.57-8.39-48.54-13.92-67.88-15.22l-6.49-.44-6.69-.33c-7.7-.38-15.31-.13-23.07-.12-1.65,0-3.22.67-4.95.36-.63-.11-10.28.59-11.85.73-15.94,1.43-31.55,3.6-47.17,7.12-3.15.71-6.01,2.32-8.29,4.78,16.84-3.78,33.47-6.42,50.55-7.83,2.11-.17,10.93-.86,12.29-.73,1.16.11,2.4.13,3.25-.4h26.52c.97.12,1.97.69,3.28.45,1.35-.24,9.75.5,11.82.67l5.33.44c12.82,1.05,25.19,3.24,37.8,5.92,12.28,2.61,25.08,7.84,34.83,15.75,5.96,4.84,10.86,12.97,5.19,20.32-9.94,12.88-39.73,19.49-55.36,20.47l-4.16.26c-3.44.22-6.9,0-10.31-.1l-10.41-.3c-1.95-.06-3.79-.19-5.78-.36l-6.01-.5c-10.47-.87-20.58-2.33-30.72-5.08-7.61-2.06-14.45-4.95-21.64-8.13-10.45-4.62-19.51-10.94-28.12-18.41l-3.75-3.26-7.05-6.79c-4.23-4.07-8.3-8.15-12.41-12.4l-11.41-11.81-5.37-5.66c-5.45-5.75-12.59-14.15-17.53-20.39l-4.33-5.46c-6.51-8.22-11.93-16.81-17.65-25.62l-24.4-37.58-18.63-29.86c-.72-1.16-.02-1.76.67-2.55l8.56-9.79c3.45-3.95,6.87-7.81,11.24-10.72,1.75-1.17,3.7-1.52,5.5-2.14h22.79v-6.38h-.52s0,0,0,0h-73.74v1.19c-.06,1.26-.27,2.5,0,3.61v1.58h31.35c1.06.29,2.05.9,2.75,2.16.59,1.08.4,2.17-.19,3.42-1.29,2.74-3.59,4.38-5.39,6.94l-37.11,37.03.09-89.89c0-3.91.6-7.44.24-11.31h-50.58c-2.38,6.81-6.08,12.64-10.81,18.61l15.35.18-.11,139.93-.54,7.46c-.21,2.84-.55,5.68-1.36,8.3-.73,2.37-2.2,3.65-4.01,5.07-13.06,10.24-23.05,12.44-39.39,13.95l-5.2.48c-2.9.27-5.65.16-8.54.44l-11.23,1.09c-9.59.93-26.22,3.73-33.79,9.88-4.48,3.64-4.82,9.82-.87,14.28,7.71,8.69,26.64,13.22,38.15,15.58,17.86,3.66,35.64,5.9,53.79,7.42,2.68.23,4.95.4,7.37.33,18.08,1.11,36.86,1.45,55.08.41,2.08.07,4.07-.02,6.37-.18,18.22-1.32,36.12-3.73,53.95-7.94,3.33-.79,27.59-6.95,26.11-11.52-20.35,7.13-45.57,11.65-66.92,13.38l-5.65.46-5.3.41-6.33.28c-3.52.15-6.99.23-10.62.4-12.84.61-23.9.13-36.66-.4l-6.77-.28-6.13-.41-4.89-.42-5.24-.41-14.39-1.47c-11.73-1.2-22.99-3.23-34.5-5.82-8.15-1.84-15.73-4.12-23.49-7.23-2.28-.91-4.22-2.52-6.31-3.8-2.75-1.69-4.86-4.86-4.04-8.01,2.02-7.7,34.64-11.49,41.95-12.13l5.21-.45,4.89-.42,6.13-.4,7.15-.29c2.76-.11,39.62-.93,51.6-1.04,1.3-.1,8.14.1,10.54-.52,10.06-2.58,18.15-12.56,18.66-22.91l.36-7.36.38-20.8.32-36.03c2.2-1.91,4.38-3.67,6.42-5.96l16.39,25.43,9.95,15.83c7.35,11.7,13.94,23.69,22.34,34.63l5.52,7.2c2.67,3.48,5.05,7.04,8.06,10.3,15.64,16.98,36.85,32.48,57.06,43.59,11.23,6.16,31.46,15.04,43.57,18.85,23.01,7.25,47.37,13.05,71.31,15.27,2.48.23,4.71.57,6.96.34-.05.13.14.43.45.43l23.18-.09c-2.47,0,8.95-.54,5.75-.74,7.39-.24,14.64-1.86,22.04-3.66,8.2-2.01,15.82-5.02,23.17-9.02,2.88-1.57,5.05-3.54,7.38-5.73,3.29-3.08,5.37-6.74,6.58-10.95v-5.71c-2.2-10.42-12.18-17.3-21.49-21.75Z"/>
</svg>