<?xml version="1.0" encoding="UTF-8"?>
<svg id="Capa_1" data-name="Capa 1" xmlns="http://www.w3.org/2000/svg" xmlns:xlink="http://www.w3.org/1999/xlink" viewBox="70 55 1850 1000">
  <defs>
    <style>
      .cls-1 {
        fill: url(#Degradado_sin_nombre_7);
      }

      .cls-2 {
        fill: #414142;
      }
    </style>
    <linearGradient id="Degradado_sin_nombre_7" data-name="Degradado sin nombre 7" x1="912.64" y1="-83.05" x2="912.64" y2="1602.9" gradientUnits="userSpaceOnUse">
      <stop offset=".05" stop-color="#050bfa"/>
      <stop offset=".11" stop-color="#0524fa"/>
      <stop offset=".23" stop-color="#0655fb"/>
      <stop offset=".34" stop-color="#0678fb"/>
      <stop offset=".43" stop-color="#068efb"/>
      <stop offset=".49" stop-color="#0796fc"/>
      <stop offset=".7" stop-color="#a5cff0"/>
    </linearGradient>
  </defs>
  <g>
    <path class="cls-2" d="M908.76,441.52h-24.73l73.92-205.31h23.35l73.64,205.31h-25.97l-21.28-63.28h-77.65l-21.28,63.28ZM969.41,265.77h-.83l-31.64,92.98h64.11l-31.64-92.98Z"/>
    <path class="cls-2" d="M1186.27,236.2c10.87,0,20.59,1.68,29.15,5.04,8.57,3.36,15.38,7.88,20.45,13.54,5.06,5.66,8.89,12.04,11.47,19.14,2.58,7.09,3.87,14.74,3.87,22.94,0,15.38-3.69,27.77-11.05,37.17-7.37,9.39-16.44,16.07-27.22,20.03l42,87.46h-27.63l-38.13-82.48h-51.81v82.48h-24.18v-205.31h73.09ZM1137.37,337.48h44.9c14.55,0,25.56-3.36,33.02-10.09,7.46-6.72,11.19-16.3,11.19-28.74,0-13.26-3.82-23.39-11.47-30.4-7.65-7-18.19-10.5-31.64-10.5h-46.01v79.72Z"/>
    <path class="cls-2" d="M1347.73,441.52h-24.18v-205.31h24.18v205.31Z"/>
    <path class="cls-2" d="M1546.91,419.69v21.83h-119.93v-205.31h24.18v183.48h95.75Z"/>
    <path class="cls-2" d="M1596.04,355.3v-30.81c0-28.74,7.37-51.35,22.1-67.84,14.74-16.49,34.47-24.73,59.2-24.73s44.44,8.2,59.13,24.59c14.69,16.4,22.04,39.05,22.04,67.98v30.81c0,28.74-7.39,51.01-22.18,66.8-14.78,15.8-34.61,23.7-59.48,23.7s-44.68-7.9-59.13-23.7c-14.46-15.8-21.69-38.06-21.69-66.8ZM1619.94,324.49v30.81c0,11.42,1.47,21.6,4.42,30.53,2.95,8.93,7.02,16.14,12.23,21.62,5.2,5.48,11.19,9.6,17.96,12.37,6.77,2.76,14.3,4.14,22.59,4.14s15.75-1.38,22.66-4.14c6.91-2.76,13.01-6.88,18.31-12.37,5.3-5.48,9.37-12.69,12.23-21.62,2.85-8.93,4.28-19.11,4.28-30.53v-30.81c0-22.66-5.32-40.11-15.96-52.36-10.64-12.25-24.48-18.38-41.52-18.38s-30.6,6.08-41.24,18.24c-10.64,12.16-15.96,29.66-15.96,52.5ZM1658.49,213.82l38.13-30.26h28.46l-39.65,30.26h-26.94Z"/>
  </g>
  <g>
    <path class="cls-2" d="M1100.03,540v-40.77h8.53v40.77h-8.53Z"/>
    <path class="cls-2" d="M1141.6,540v-40.77h7.12l18.76,25.4h.51v-25.4h8.17v40.77h-7.06l-18.82-25.52h-.51v25.52h-8.17Z"/>
    <path class="cls-2" d="M1220.07,540l-13.79-40.77h9.64l9.27,31.17h.51l9.1-31.17h9.18l-13.59,40.77h-10.31Z"/>
    <path class="cls-2" d="M1301.09,540h-27.01v-40.77h27.01v7.29h-18.48v9.52h17.44v6.75h-17.44v9.92h18.48v7.29Z"/>
    <path class="cls-2" d="M1339.63,528.67c.09.83.37,1.58.82,2.25.45.67,1.05,1.24,1.79,1.71.74.47,1.61.83,2.61,1.09,1,.25,2.1.38,3.3.38,1.11,0,2.13-.13,3.05-.38.92-.26,1.72-.61,2.39-1.07.67-.46,1.19-1.01,1.57-1.65s.57-1.35.57-2.12c0-.64-.13-1.22-.4-1.75s-.68-1-1.24-1.41c-.56-.41-1.3-.79-2.19-1.12-.9-.33-1.96-.63-3.21-.89l-5.31-1.13c-7.38-1.54-11.08-5.42-11.08-11.64,0-1.92.37-3.66,1.12-5.23.74-1.56,1.79-2.9,3.15-4.03,1.36-1.12,3-1.98,4.92-2.58,1.92-.6,4.06-.9,6.41-.9s4.3.3,6.19.9c1.88.6,3.51,1.45,4.89,2.53,1.38,1.08,2.46,2.38,3.25,3.89.79,1.51,1.22,3.16,1.27,4.97h-8.03c-.09-.81-.35-1.55-.76-2.2-.41-.66-.95-1.22-1.6-1.7-.65-.47-1.41-.83-2.29-1.09-.88-.25-1.83-.38-2.87-.38s-2.04.12-2.91.35-1.61.58-2.23,1.02c-.62.44-1.1.98-1.44,1.61-.34.63-.51,1.33-.51,2.1,0,1.26.52,2.28,1.57,3.05,1.05.77,2.76,1.41,5.16,1.92l4.92,1.05c2.05.43,3.82.98,5.3,1.65s2.69,1.47,3.65,2.41c.95.94,1.65,2.03,2.1,3.28.45,1.24.68,2.66.68,4.24,0,2.05-.38,3.9-1.15,5.54-.76,1.64-1.86,3.03-3.29,4.17-1.43,1.14-3.17,2.02-5.2,2.63-2.04.61-4.33.92-6.9.92-2.43,0-4.63-.29-6.61-.86-1.98-.57-3.67-1.4-5.09-2.47-1.41-1.07-2.52-2.37-3.32-3.9-.8-1.53-1.24-3.24-1.31-5.14h8.25Z"/>
    <path class="cls-2" d="M1405.33,540v-33.48h-12.23v-7.29h33v7.29h-12.23v33.48h-8.53Z"/>
    <path class="cls-2" d="M1456.79,540v-40.77h10.06l11.27,27.41h.51l11.3-27.41h10.03v40.77h-7.91v-27.27h-.45l-10.37,24.92h-5.68l-10.4-24.92h-.45v27.27h-7.91Z"/>
    <path class="cls-2" d="M1560.01,540h-27.01v-40.77h27.01v7.29h-18.48v9.52h17.44v6.75h-17.44v9.92h18.48v7.29Z"/>
    <path class="cls-2" d="M1592.14,540v-40.77h7.12l18.76,25.4h.51v-25.4h8.17v40.77h-7.06l-18.82-25.52h-.51v25.52h-8.17Z"/>
    <path class="cls-2" d="M1669.63,540v-33.48h-12.23v-7.29h33v7.29h-12.23v33.48h-8.53Z"/>
    <path class="cls-2" d="M1727.5,528.67c.09.83.37,1.58.82,2.25.45.67,1.05,1.24,1.79,1.71.74.47,1.61.83,2.61,1.09,1,.25,2.1.38,3.3.38,1.11,0,2.13-.13,3.05-.38.92-.26,1.72-.61,2.39-1.07.67-.46,1.19-1.01,1.57-1.65s.57-1.35.57-2.12c0-.64-.13-1.22-.4-1.75s-.68-1-1.24-1.41c-.56-.41-1.3-.79-2.19-1.12-.9-.33-1.96-.63-3.21-.89l-5.31-1.13c-7.38-1.54-11.08-5.42-11.08-11.64,0-1.92.37-3.66,1.12-5.23.74-1.56,1.79-2.9,3.15-4.03,1.36-1.12,3-1.98,4.92-2.58,1.92-.6,4.06-.9,6.41-.9s4.3.3,6.19.9c1.88.6,3.51,1.45,4.89,2.53,1.38,1.08,2.46,2.38,3.25,3.89.79,1.51,1.22,3.16,1.27,4.97h-8.03c-.09-.81-.35-1.55-.76-2.2-.41-.66-.95-1.22-1.6-1.7-.65-.47-1.41-.83-2.29-1.09-.88-.25-1.83-.38-2.87-.38s-2.04.12-2.91.35-1.61.58-2.23,1.02c-.62.44-1.1.98-1.44,1.61s-.51,1.33-.51,2.1c0,1.26.52,2.28,1.57,3.05,1.05.77,2.76,1.41,5.16,1.92l4.92,1.05c2.05.43,3.82.98,5.3,1.65s2.69,1.47,3.65,2.41c.95.94,1.65,2.03,2.1,3.28.45,1.24.68,2.66.68,4.24,0,2.05-.38,3.9-1.15,5.54-.76,1.64-1.86,3.03-3.29,4.17-1.43,1.14-3.17,2.02-5.2,2.63-2.04.61-4.33.92-6.9.92-2.43,0-4.63-.29-6.61-.86-1.98-.57-3.67-1.4-5.09-2.47-1.41-1.07-2.52-2.37-3.32-3.9-.8-1.53-1.24-3.24-1.31-5.14h8.25Z"/>
  </g>
  <path class="cls-1" d="M1681.63,813.25c-60.51-28.91-167.14-47.93-233.73-52.42l-22.33-1.5-23.03-1.13c-26.52-1.3-52.71-.46-79.44-.4-5.69.01-11.09,2.3-17.04,1.22-2.18-.39-35.41,2.02-40.81,2.5-54.88,4.93-108.65,12.4-162.41,24.51-10.84,2.44-20.69,7.97-28.54,16.44,57.98-13,115.23-22.11,174.05-26.98,7.26-.6,37.65-2.96,42.33-2.51,4,.38,8.25.43,11.19-1.38h91.31c3.33.42,6.77,2.37,11.28,1.56,4.64-.83,33.57,1.73,40.7,2.31l18.34,1.51c44.14,3.62,86.74,11.15,130.17,20.37,42.28,8.97,86.36,26.99,119.94,54.25,20.52,16.66,37.38,44.67,17.86,69.98-34.22,44.35-136.79,67.1-190.63,70.47l-14.33.9c-11.86.74-23.77,0-35.51-.34l-35.84-1.02c-6.71-.19-13.04-.66-19.89-1.23l-20.69-1.71c-36.05-2.98-70.85-8.03-105.79-17.5-26.21-7.1-49.74-17.05-74.5-27.99-35.96-15.89-67.19-37.69-96.82-63.4l-12.92-11.22-24.29-23.4c-14.56-14.02-28.59-28.06-42.73-42.7l-39.27-40.67-18.48-19.5c-18.77-19.8-43.35-48.73-60.38-70.21l-14.9-18.8c-22.43-28.31-41.07-57.87-60.78-88.21l-84-129.39-64.16-102.81c-2.49-4-.08-6.07,2.29-8.79l29.46-33.73c11.87-13.59,23.66-26.88,38.72-36.91,6.03-4.02,12.73-5.23,18.94-7.38h78.48v-21.96h-1.78s0,0,0,0h-253.9v4.1c-.22,4.35-.92,8.61,0,12.42v5.45h107.94c3.65,1,7.07,3.09,9.46,7.45,2.05,3.73,1.37,7.49-.65,11.77-4.45,9.42-12.35,15.08-18.55,23.91l-127.77,127.5.32-309.5c.01-13.46,2.08-25.61.82-38.94h-174.15c-8.21,23.43-20.94,43.51-37.23,64.07l52.87.64-.38,481.82-1.85,25.68c-.71,9.78-1.91,19.55-4.68,28.58-2.51,8.17-7.58,12.57-13.82,17.46-44.96,35.26-79.37,42.84-135.62,48.04l-17.91,1.66c-9.99.92-19.46.54-29.42,1.51l-38.66,3.76c-33.02,3.22-90.3,12.84-116.36,34.01-15.44,12.54-16.61,33.81-2.99,49.16,26.56,29.92,91.74,45.53,131.35,53.65,61.5,12.61,122.72,20.3,185.2,25.57,9.23.78,17.05,1.37,25.39,1.13,62.25,3.82,126.91,5,189.65,1.4,7.16.24,14.03-.06,21.94-.63,62.72-4.53,124.35-12.86,185.78-27.35,11.46-2.7,95-23.94,89.9-39.68-70.07,24.54-156.9,40.1-230.43,46.08l-19.46,1.58-18.24,1.43-21.8.95c-12.12.53-24.06.78-36.57,1.37-44.21,2.11-82.29.46-126.21-1.38l-23.3-.97-21.12-1.4-16.83-1.44-18.06-1.42-49.55-5.07c-40.37-4.13-79.16-11.12-118.79-20.05-28.05-6.32-54.15-14.17-80.87-24.89-7.84-3.14-14.52-8.67-21.72-13.09-9.46-5.81-16.74-16.74-13.9-27.58,6.94-26.5,119.26-39.57,144.46-41.75l17.94-1.56,16.85-1.45,21.1-1.38,24.62-.99c9.52-.38,136.41-3.19,177.66-3.59,4.47-.36,28.04.34,36.31-1.78,34.64-8.89,62.51-43.25,64.26-78.88l1.25-25.34,1.31-71.61,1.09-124.06c7.59-6.57,15.09-12.62,22.11-20.54l56.45,87.57,34.25,54.51c25.31,40.29,48.01,81.56,76.91,119.24l19.02,24.79c9.19,11.98,17.4,24.23,27.75,35.46,53.84,58.47,126.87,111.85,196.49,150.07,38.66,21.23,108.34,51.79,150.02,64.92,79.23,24.96,163.09,44.93,245.52,52.59,8.54.79,16.23,1.96,23.95,1.19-.17.44.5,1.47,1.53,1.47l79.8-.31c-8.51.03,30.82-1.86,19.81-2.56,25.43-.81,50.41-6.39,75.87-12.61,28.23-6.9,54.47-17.29,79.77-31.05,9.91-5.39,17.37-12.18,25.41-19.72,11.32-10.62,18.51-23.21,22.64-37.69v-19.65c-7.57-35.89-41.94-59.58-73.99-74.89Z"/>
  <path class="cls-2" d="M1817,299.72c-9.71,0-17.73-3.04-24.05-9.13-6.32-6.09-9.48-13.71-9.48-22.87v-4.77c0-8.74,3.2-16.11,9.61-22.11,6.4-6,14.38-9,23.93-9s17.38,3.02,23.77,9.07c6.38,6.04,9.58,13.39,9.58,22.05v4.77c0,9.16-3.15,16.79-9.45,22.87-6.3,6.09-14.26,9.13-23.89,9.13ZM1844.04,267.71v-4.77c0-7-2.59-12.87-7.76-17.62-5.17-4.75-11.6-7.13-19.28-7.13-5.13,0-9.77,1.1-13.9,3.31-4.13,2.21-7.36,5.19-9.67,8.94-2.31,3.75-3.47,7.92-3.47,12.5v4.77c0,7.42,2.54,13.55,7.63,18.39,5.09,4.83,11.54,7.25,19.34,7.25s14.27-2.42,19.41-7.25c5.13-4.84,7.7-10.97,7.7-18.39ZM1811.46,281.59h-6.24v-32.96h14.96c2.93,0,5.35.95,7.28,2.83,1.93,1.89,2.89,4.21,2.89,6.97,0,2.37-.61,4.44-1.84,6.2-1.23,1.76-2.82,2.92-4.77,3.47l7.57,13.49h-7.44l-6.49-12.73h-5.92v12.73ZM1811.46,253.27v11.01h5.41c4.75,0,7.12-1.87,7.12-5.6,0-1.74-.57-3.07-1.72-4.01-1.15-.93-2.65-1.4-4.52-1.4h-6.3Z"/>
</svg>